<?xml version="1.0" standalone="no"?>
<!DOCTYPE svg PUBLIC "-//W3C//DTD SVG 20010904//EN"
 "http://www.w3.org/TR/2001/REC-SVG-20010904/DTD/svg10.dtd">
<svg version="1.0" xmlns="http://www.w3.org/2000/svg"
 width="4406.000000pt" height="4406.000000pt" viewBox="0 0 4406.000000 4406.000000"
 preserveAspectRatio="xMidYMid meet">
<metadata>
Created by potrace 1.16, written by Peter Selinger 2001-2019
</metadata>
<g transform="translate(0.000000,4406.000000) scale(0.100000,-0.100000)"
fill="#000000" stroke="none">
<path d="M21425 38504 c-2764 -106 -5406 -881 -7770 -2277 -2388 -1411 -4411
-3434 -5822 -5822 -1253 -2121 -2006 -4466 -2222 -6920 -49 -549 -55 -727 -55
-1455 0 -728 6 -906 55 -1455 338 -3831 1988 -7385 4703 -10133 2751 -2784
6371 -4488 10261 -4831 549 -49 727 -55 1455 -55 728 0 906 6 1455 55 1637
144 3232 529 4745 1144 4113 1672 7403 4962 9075 9075 615 1513 1000 3108
1144 4745 49 549 55 727 55 1455 0 728 -6 906 -55 1455 -144 1637 -529 3232
-1144 4745 -1672 4113 -4962 7403 -9075 9075 -1516 616 -3112 1001 -4750 1145
-499 43 -698 51 -1340 54 -344 2 -665 2 -715 0z m1187 -334 c1559 -64 2957
-309 4383 -770 4779 -1542 8602 -5268 10272 -10010 858 -2436 1117 -5062 752
-7640 -574 -4067 -2694 -7766 -5928 -10349 -2252 -1798 -4939 -2959 -7781
-3360 -1512 -214 -3048 -214 -4560 0 -4244 599 -8088 2884 -10669 6343 -2471
3311 -3573 7426 -3091 11541 516 4396 2827 8392 6394 11054 2523 1884 5522
2982 8661 3171 493 30 1125 38 1567 20z"/>
<path d="M21057 37393 c-2 -5 0 -809 4 -1788 4 -979 8 -2020 8 -2314 l1 -534
773 7 c432 4 812 11 862 17 291 34 549 146 776 335 235 196 379 437 434 727
34 178 13 436 -49 600 -122 324 -373 599 -671 733 -47 21 -85 41 -85 44 1 3
40 28 88 55 113 65 268 216 347 338 125 194 183 367 192 579 27 606 -413 1107
-1052 1198 -82 11 -1622 14 -1628 3z m1717 -286 c185 -51 324 -129 452 -254
292 -286 354 -684 159 -1021 -136 -237 -340 -388 -625 -464 -91 -24 -429 -36
-1046 -37 l-401 -1 -6 242 c-4 133 -7 540 -7 905 l0 664 688 -4 687 -3 99 -27z
m-64 -2048 c191 -30 404 -116 545 -218 298 -217 451 -516 432 -840 -29 -484
-432 -878 -977 -956 -70 -10 -266 -14 -745 -17 l-650 -3 -3 1022 -2 1023 527
3 c589 4 777 1 873 -14z"/>
<path d="M27280 34025 c-965 -1695 -1141 -2008 -1129 -2019 14 -14 2115 -1211
2140 -1220 10 -4 33 29 77 106 34 61 61 112 60 113 -2 1 -441 251 -975 556
-535 304 -973 556 -973 559 0 3 114 205 254 450 207 364 257 444 272 442 10
-2 465 -120 1009 -262 545 -142 999 -260 1009 -262 16 -2 32 19 79 100 33 57
56 107 51 111 -5 5 -461 127 -1014 271 -553 145 -1009 266 -1013 270 -7 6
1358 2417 1381 2442 4 4 445 -243 981 -548 536 -305 977 -551 982 -547 23 25
120 216 113 222 -16 14 -2128 1214 -2145 1218 -12 4 -282 -462 -1159 -2002z"/>
<path d="M14890 35570 c-91 -49 -166 -94 -168 -99 -3 -9 695 -4833 704 -4859
2 -8 31 2 91 34 49 26 93 52 100 58 12 12 -48 434 -471 3321 -113 769 -204
1401 -202 1402 4 4 2319 -2075 2323 -2085 2 -4 -363 -92 -810 -196 -446 -105
-817 -191 -823 -193 -7 -3 -5 -40 8 -120 10 -64 20 -119 22 -120 2 -2 409 91
905 206 496 116 910 211 920 211 10 0 239 -200 510 -445 l493 -446 111 60 c61
32 112 63 113 67 3 11 -3632 3288 -3649 3291 -7 1 -86 -38 -177 -87z"/>
<path d="M21535 31909 c-1785 -88 -3515 -661 -4995 -1654 -569 -382 -1012
-746 -1500 -1235 -309 -308 -510 -532 -762 -850 -962 -1213 -1635 -2654 -1937
-4146 -529 -2616 -5 -5294 1464 -7484 382 -569 746 -1012 1235 -1500 788 -789
1641 -1401 2635 -1890 1167 -574 2351 -890 3715 -992 233 -17 1047 -17 1280 0
1637 122 3060 565 4430 1380 691 411 1328 909 1920 1502 789 788 1401 1641
1890 2635 461 937 761 1906 910 2944 72 502 95 839 95 1411 0 471 -7 625 -46
1010 -160 1598 -717 3143 -1614 4480 -382 569 -746 1012 -1235 1500 -788 789
-1641 1401 -2635 1890 -1219 600 -2511 932 -3890 1000 -229 11 -724 11 -960
-1z m880 -329 c1709 -78 3254 -557 4697 -1456 880 -548 1727 -1305 2383 -2129
865 -1086 1472 -2308 1804 -3634 385 -1534 385 -3128 0 -4662 -270 -1080 -732
-2110 -1357 -3029 -1066 -1567 -2557 -2776 -4309 -3494 -635 -260 -1348 -461
-2040 -575 -1298 -214 -2619 -160 -3894 160 -1080 270 -2109 732 -3029 1357
-1649 1121 -2905 2720 -3599 4579 -208 559 -362 1130 -461 1718 -219 1294
-177 2571 126 3850 258 1090 742 2183 1382 3125 682 1003 1549 1870 2552 2552
837 569 1756 998 2747 1283 942 271 2026 399 2998 355z"/>
<path d="M22090 30089 c-30 -4 -118 -30 -195 -58 -197 -71 -256 -84 -360 -85
-72 0 -108 6 -180 29 -163 52 -296 30 -484 -79 -48 -28 -150 -87 -225 -131
-228 -132 -249 -164 -261 -395 -17 -340 -32 -391 -143 -487 -102 -89 -130
-122 -153 -182 -20 -52 -23 -102 -45 -631 -13 -321 -28 -593 -35 -615 -16 -59
-51 -99 -137 -159 -221 -155 -364 -388 -402 -652 -8 -58 -8 -262 1 -780 11
-655 11 -703 -5 -745 -23 -60 -49 -87 -142 -149 -43 -30 -101 -74 -128 -99
-60 -56 -137 -172 -166 -249 -52 -137 -52 -141 -44 -1058 l7 -850 -22 -48
c-12 -29 -56 -86 -108 -140 -139 -147 -221 -306 -252 -492 -9 -52 -11 -365 -9
-1200 l3 -1129 -22 -62 c-55 -160 -144 -270 -322 -396 -308 -219 -497 -504
-577 -868 -18 -80 -19 -157 -19 -1481 l0 -1397 21 -28 c45 -61 419 -320 475
-329 41 -7 81 10 119 51 l25 27 5 991 c5 988 5 992 27 1049 79 207 246 337
458 354 95 8 175 -8 271 -56 146 -72 259 -222 284 -380 6 -42 10 -516 10
-1344 l0 -1280 23 -33 c25 -37 50 -49 272 -128 172 -61 199 -63 250 -23 57 45
55 5 55 1061 0 1060 -2 1025 57 1147 35 73 151 188 224 224 209 101 446 65
604 -92 61 -60 94 -111 128 -195 22 -52 22 -53 27 -1217 5 -1119 6 -1166 24
-1196 31 -52 64 -64 233 -85 248 -30 293 -24 330 44 17 30 18 105 23 1127 5
1092 5 1095 27 1147 34 84 67 135 128 195 158 157 395 193 604 92 73 -36 189
-151 224 -224 59 -123 57 -78 57 -1246 0 -736 3 -1082 11 -1101 15 -40 48 -72
84 -82 44 -12 395 13 431 31 16 7 39 28 51 47 l23 34 0 1091 c0 1200 -1 1168
62 1295 60 123 193 230 333 267 76 21 211 18 287 -6 127 -39 249 -143 309
-262 60 -119 59 -90 59 -1183 0 -973 1 -1001 20 -1032 27 -45 64 -66 113 -65
59 1 371 76 402 96 14 10 35 31 45 49 19 31 20 60 20 1197 0 1274 -2 1228 59
1348 60 119 182 223 309 262 76 24 211 27 287 6 171 -45 312 -182 373 -361 15
-45 17 -143 22 -1035 5 -929 6 -987 23 -1012 17 -25 81 -58 113 -58 22 0 233
88 264 110 56 40 54 -19 46 1319 -4 680 -11 1349 -15 1486 -7 223 -10 256 -30
306 -66 171 -277 367 -461 429 -82 28 -218 37 -291 20 -30 -7 -153 -57 -274
-110 -970 -431 -1847 -630 -2778 -630 -424 0 -742 30 -1132 106 -769 151
-1544 487 -2060 892 -150 118 -295 274 -295 317 0 6 96 -37 213 -97 116 -59
215 -107 220 -108 4 0 7 375 7 833 0 675 3 844 14 898 44 207 219 374 428 409
266 46 537 -141 594 -409 11 -54 14 -247 14 -1072 l0 -1006 118 -46 c158 -61
417 -137 470 -137 9 0 12 164 12 788 0 865 -2 840 61 964 60 120 197 228 334
264 67 18 187 18 260 -1 174 -46 310 -179 371 -365 17 -51 19 -116 22 -917 l3
-862 47 -8 c55 -9 511 -9 535 0 16 6 17 55 17 630 0 541 2 631 16 678 67 229
268 381 504 381 237 0 445 -160 505 -387 12 -49 15 -143 15 -560 0 -276 2
-504 5 -507 9 -8 228 40 335 74 52 16 132 46 177 66 l81 37 4 425 c4 373 6
432 22 480 73 226 269 371 499 371 228 0 413 -128 497 -346 21 -53 24 -81 28
-246 l4 -186 52 28 c71 38 168 69 217 69 l42 0 -7 598 c-8 642 -10 672 -62
774 -61 121 -142 200 -260 255 -54 26 -69 28 -184 28 -69 0 -260 -6 -426 -14
-806 -36 -1654 65 -2439 291 -762 219 -1509 575 -2085 995 -321 234 -618 522
-695 674 -23 45 -33 89 -19 89 3 0 64 -38 135 -85 72 -47 132 -85 134 -85 2 0
6 267 7 593 4 659 0 621 75 749 174 297 588 343 823 91 62 -66 88 -108 124
-203 20 -54 21 -68 24 -931 l3 -877 92 -58 c189 -120 466 -246 590 -269 l37
-7 0 594 c0 645 0 650 57 768 35 73 151 188 224 224 118 57 254 72 374 41 71
-19 174 -78 229 -132 57 -55 113 -147 136 -221 19 -62 20 -94 20 -813 l0 -748
123 -40 c178 -57 481 -121 580 -121 l27 0 0 423 c0 259 4 446 11 483 35 194
197 363 390 409 298 70 589 -124 638 -426 7 -37 11 -251 11 -513 l0 -448 325
3 c197 3 328 8 333 14 9 11 -22 1646 -33 1717 -39 245 -203 439 -409 482 -39
8 -116 18 -171 21 -1167 69 -2245 324 -3126 740 -419 198 -759 410 -1027 640
-148 127 -281 283 -270 315 2 6 33 -10 70 -35 37 -25 70 -45 73 -45 3 0 5 206
5 458 0 373 3 468 15 515 64 245 286 409 535 394 226 -13 410 -160 474 -376
14 -48 16 -144 16 -768 l0 -713 58 -29 c116 -58 372 -141 437 -141 12 0 15 83
17 543 3 494 5 546 22 589 33 86 76 156 132 212 275 274 728 171 863 -197 l26
-72 3 -691 3 -690 67 -22 c99 -31 174 -42 288 -42 l102 0 4 488 c4 468 5 490
26 552 105 316 458 455 755 298 71 -38 175 -146 210 -219 56 -116 57 -124 57
-750 l0 -577 68 -7 c76 -7 208 -30 235 -40 16 -7 17 3 17 121 0 174 -17 910
-31 1333 -12 379 -18 418 -80 515 -70 112 -206 229 -345 299 -117 59 -164 67
-434 77 -286 10 -421 22 -660 56 -891 127 -1818 507 -2373 972 -77 65 -134
129 -124 139 3 2 37 -14 76 -36 61 -36 195 -101 207 -101 2 0 4 118 4 263 0
192 4 281 15 332 52 245 261 415 510 415 143 0 269 -52 369 -154 72 -74 129
-179 145 -270 7 -37 11 -230 11 -498 l0 -439 48 -20 c139 -61 314 -104 468
-116 l84 -6 0 271 c0 299 5 342 56 447 81 169 242 277 433 291 233 18 457
-136 533 -365 21 -62 22 -87 26 -448 l4 -383 71 0 c257 0 496 -55 620 -142 19
-14 27 -16 27 -6 0 7 -16 312 -35 678 -23 444 -40 686 -50 728 -48 201 -213
373 -393 411 -29 6 -139 11 -245 11 -316 0 -684 28 -1007 76 -708 105 -1372
323 -1765 580 -71 46 -160 124 -142 124 3 0 80 -25 171 -55 90 -30 172 -55
180 -55 14 0 16 17 16 113 0 290 124 481 363 562 87 29 208 34 292 11 189 -50
350 -222 384 -410 6 -33 11 -151 11 -263 0 -112 2 -203 4 -203 2 0 39 -6 82
-14 81 -15 150 -21 217 -18 l37 2 0 153 c0 171 12 235 60 326 144 269 492 359
745 192 75 -50 114 -90 160 -166 64 -107 75 -162 75 -370 l0 -183 78 -6 c106
-9 216 -25 282 -41 30 -8 56 -13 58 -10 6 6 -88 917 -99 957 -7 26 -24 49 -57
75 -25 21 -63 54 -83 73 -35 34 -36 37 -43 135 -21 309 -121 417 -354 385 -44
-6 -169 -33 -277 -60 -386 -97 -517 -90 -698 38 -49 34 -135 66 -165 61 -4 -1
-32 -5 -62 -10z"/>
<path d="M32225 30380 c-1034 -737 -1879 -1343 -1878 -1347 3 -13 1436 -2023
1442 -2023 14 0 206 142 203 151 -1 5 -292 417 -647 915 -355 498 -645 908
-645 912 1 4 501 363 1112 797 611 435 1411 1004 1778 1265 l668 476 -70 97
c-38 53 -72 97 -76 97 -4 -1 -853 -604 -1887 -1340z"/>
<path d="M10295 31294 c-353 -40 -657 -213 -877 -500 -25 -32 -226 -333 -448
-667 -339 -512 -401 -610 -389 -621 25 -23 3837 -2546 3845 -2545 11 0 792
1181 861 1301 140 243 202 503 190 792 -9 210 -41 350 -117 513 -115 245 -313
446 -554 563 -372 180 -870 150 -1214 -73 -40 -26 -74 -47 -75 -47 -1 0 -1 57
1 127 8 305 -111 604 -328 824 -103 104 -177 158 -297 218 -177 88 -420 135
-598 115z m316 -273 c164 -42 285 -110 398 -224 163 -164 251 -383 251 -625 0
-195 -48 -376 -141 -534 -31 -52 -681 -1041 -695 -1057 -2 -3 -1478 971 -1497
989 -11 10 667 1031 744 1121 109 126 280 245 424 294 163 56 380 71 516 36z
m1942 -1055 c354 -105 602 -394 668 -780 15 -87 7 -315 -15 -411 -26 -119 -65
-225 -125 -340 -84 -162 -727 -1129 -746 -1121 -8 3 -392 256 -855 562 -532
353 -837 561 -833 568 59 96 670 1010 712 1065 184 242 481 427 751 471 41 6
82 13 90 15 8 2 71 2 140 0 97 -2 144 -9 213 -29z"/>
<path d="M9549 26542 c-40 -102 -209 -626 -263 -812 -474 -1637 -628 -3350
-456 -5050 259 -2542 1242 -4942 2844 -6940 1920 -2395 4612 -4058 7591 -4689
1833 -388 3748 -385 5573 10 2003 433 3877 1326 5482 2613 2384 1911 4037
4578 4679 7548 473 2190 384 4478 -259 6623 -57 188 -166 523 -220 671 l-11
31 -152 -55 c-84 -30 -154 -56 -155 -57 -2 -2 37 -124 86 -272 349 -1038 560
-2082 641 -3168 44 -580 44 -1332 1 -1925 -189 -2590 -1161 -5064 -2794 -7110
-498 -624 -1165 -1307 -1786 -1831 -1284 -1081 -2781 -1910 -4375 -2420 -1185
-379 -2391 -581 -3633 -608 -952 -20 -1831 50 -2727 220 -2171 411 -4212 1381
-5905 2808 -528 444 -1137 1054 -1581 1581 -789 936 -1456 2007 -1945 3123
-591 1347 -948 2781 -1054 4237 -43 591 -43 1347 0 1920 84 1121 320 2262 676
3277 35 100 64 184 64 187 0 2 -19 11 -42 19 -24 8 -94 33 -156 56 l-113 41
-10 -28z"/>
</g>
</svg>
